<?xml version="1.0" standalone="no"?>
<!DOCTYPE svg PUBLIC "-//W3C//DTD SVG 20010904//EN"
 "http://www.w3.org/TR/2001/REC-SVG-20010904/DTD/svg10.dtd">
<svg version="1.0" xmlns="http://www.w3.org/2000/svg"
 width="457.000000pt" height="457.000000pt" viewBox="0 0 457.000000 457.000000"
 preserveAspectRatio="xMidYMid meet">
<metadata>
Created by potrace 1.11, written by Peter Selinger 2001-2013
</metadata>
<g transform="translate(0.000000,457.000000) scale(0.100000,-0.100000)"
fill="#000000" stroke="none">
<path d="M1705 4559 c-151 -19 -319 -70 -470 -144 -513 -249 -844 -686 -921
-1214 -4 -25 -9 -55 -13 -66 -3 -11 -7 -719 -8 -1573 l-4 -1552 678 2 677 3
-1 608 0 607 26 1 c14 0 133 1 264 1 l237 1 1 31 c0 37 0 1297 -1 1344 l0 32
-264 0 -265 0 4 123 c6 184 43 286 126 347 51 37 101 51 177 51 75 0 203 -10
214 -17 4 -3 8 21 9 53 0 75 0 1287 0 1334 l-1 36 -202 0 c-112 0 -230 -4
-263 -8z"/>
<path d="M3770 4554 c-41 -7 -91 -16 -110 -20 -73 -13 -243 -75 -341 -123
-439 -219 -754 -586 -869 -1013 -26 -94 -34 -137 -56 -283 -3 -22 -7 -730 -9
-1573 l-2 -1532 677 0 677 0 1 592 c0 326 1 602 1 613 1 19 8 20 263 20 l263
0 1 703 1 703 -191 -1 c-105 0 -225 -1 -266 0 l-75 0 3 107 c6 216 57 333 170
389 32 16 59 19 198 18 l162 -2 0 708 0 707 -212 0 c-127 0 -241 -5 -286 -13z"/>
</g>
</svg>
