<svg id="Layer_1" data-name="Layer 1" xmlns="http://www.w3.org/2000/svg" viewBox="0 0 522.89 330.72"><g id="ffui"><path d="M175.59,244.4v50H154.28v49H106.54V235.33q0-18.24,6.26-31.14a65.08,65.08,0,0,1,24.06-26.86q16.14-10.41,33.63-10.41l5.1.13v50c-1.1-.08-1.91-.12-2.42-.12q-9.07,0-14,6t-4.91,17.11v4.34Z" transform="translate(-5.93 -17.67)"/><path d="M253,245v50H231.71v49H184V235.94q0-18.24,6.25-31.14a65.08,65.08,0,0,1,24.06-26.86q16.14-10.41,33.63-10.41l5.1.13v50c-1.1-.08-1.91-.13-2.42-.13q-9.06,0-14,6t-4.91,17.11V245Z" transform="translate(-5.93 -17.67)"/><path d="M260.62,218.59h47.74v71.85q0,10.85,9.06,10.85t8.93-10.85V218.59h47.73v71q0,24.75-16.46,41.79t-40.33,17q-27.18,0-43.78-19.78-12.88-15.44-12.89-42.88Z" transform="translate(-5.93 -17.67)"/><path d="M428,217.41V344.65H380.21V217.41Zm-23.74-56.8A23.38,23.38,0,0,1,421,167.44a22.59,22.59,0,0,1,.38,32.48q-6.69,6.39-17.16,6.38T387,199.92a22.59,22.59,0,0,1,.38-32.48A23.4,23.4,0,0,1,404.21,160.61Z" transform="translate(-5.93 -17.67)"/></g><g id="FormFactory"><path d="M33.15,51.74V70.16H26.36V88.07H5.93V45.45q0-12,7.42-19.91a24.6,24.6,0,0,1,18.7-7.87q12.42,0,20.78,10.72L36.07,40.61q-1.41-3.91-5-3.92-4.72,0-4.73,6.54v8.51Z" transform="translate(-5.93 -17.67)"/><path d="M67.19,37.45a24.92,24.92,0,0,1,18.3,7.67,25.19,25.19,0,0,1,7.62,18.4A25.06,25.06,0,0,1,85.38,82a25.52,25.52,0,0,1-18.64,7.65A25.55,25.55,0,0,1,48.07,82a25.06,25.06,0,0,1-7.75-18.49A24.83,24.83,0,0,1,48.07,45,26.4,26.4,0,0,1,67.19,37.45ZM66.69,56a6.85,6.85,0,0,0-5.13,2.19,7.77,7.77,0,0,0,0,10.69,7,7,0,0,0,10.27,0,7.77,7.77,0,0,0,0-10.69A6.93,6.93,0,0,0,66.69,56Z" transform="translate(-5.93 -17.67)"/><path d="M124.88,37.39V57.52a7.48,7.48,0,0,0-3.57-1.1q-5.13,0-5.13,7.85v23.8H97.35V60.64q0-10.86,5.94-17.33t15.86-6.47A38.37,38.37,0,0,1,124.88,37.39Z" transform="translate(-5.93 -17.67)"/><path d="M199.27,88.07H180.44V61a10.07,10.07,0,0,0-.65-4.33,2.46,2.46,0,0,0-2.37-1.21q-3.16,0-3.17,5.59v27H155.43V61a9.67,9.67,0,0,0-.68-4.33,2.5,2.5,0,0,0-2.39-1.21q-3.12,0-3.12,5.59v27H130.42V57.17a20,20,0,0,1,5.69-14.37,18.41,18.41,0,0,1,13.78-5.91q8.36,0,15,7,7.4-7,14.8-7a18.66,18.66,0,0,1,15.1,6.84q4.47,5.34,4.48,15.56Z" transform="translate(-5.93 -17.67)"/><path d="M237.51,51.74V70.16h-6.79V88.07H210.29V45.45q0-12,7.42-19.91a24.6,24.6,0,0,1,18.7-7.87q12.42,0,20.78,10.72L240.43,40.61q-1.41-3.91-5-3.92-4.72,0-4.73,6.54v8.51Z" transform="translate(-5.93 -17.67)"/><path d="M274.39,69.25V88.73a24.61,24.61,0,0,1-4.23.4,25.78,25.78,0,0,1-18.87-7.45A25.15,25.15,0,0,1,243.74,63a26,26,0,0,1,26.17-26.12q12.18,0,19.2,7.12t7,19.45V88.07H277.31V64.82a9.72,9.72,0,0,0-1.94-6.34,6.37,6.37,0,0,0-5.21-2.36,7.41,7.41,0,0,0-5.33,12.43,6.67,6.67,0,0,0,5,2A8.55,8.55,0,0,0,274.39,69.25Z" transform="translate(-5.93 -17.67)"/><path d="M335.53,65l18.68-.7a26.51,26.51,0,0,1-8.11,17.86,24.69,24.69,0,0,1-17.76,7,25.31,25.31,0,0,1-18.7-7.7A25.79,25.79,0,0,1,302,62.56a24.5,24.5,0,0,1,7.7-18.17,26.27,26.27,0,0,1,35.07-1.61,25.18,25.18,0,0,1,9,15.15l-19.07.7a7.56,7.56,0,0,0-6.24-3.22,7.11,7.11,0,0,0-5.29,2.11,7.36,7.36,0,0,0-2.06,5.34,7.47,7.47,0,0,0,2.19,5.48,7.36,7.36,0,0,0,5.46,2.22Q333.53,70.56,335.53,65Z" transform="translate(-5.93 -17.67)"/><path d="M379.17,19.38V38.6h8.45V58.48h-8.45q0,6,1.88,8.25T388,69V88.78c-1,0-1.69,0-2.16,0a25.55,25.55,0,0,1-12.05-3,24.35,24.35,0,0,1-9.09-8q-4.32-6.5-4.33-17.22V19.38Z" transform="translate(-5.93 -17.67)"/><path d="M420.69,36.84A24.88,24.88,0,0,1,439,44.51a25.2,25.2,0,0,1,7.63,18.4,25.1,25.1,0,0,1-7.73,18.52,26.55,26.55,0,0,1-37.32,0,25.1,25.1,0,0,1-7.75-18.49,24.87,24.87,0,0,1,7.75-18.55A26.42,26.42,0,0,1,420.69,36.84Zm-.51,18.57a6.87,6.87,0,0,0-5.13,2.19,7.78,7.78,0,0,0,0,10.69,7,7,0,0,0,10.26,0,7.78,7.78,0,0,0,0-10.69A6.93,6.93,0,0,0,420.18,55.41Z" transform="translate(-5.93 -17.67)"/><path d="M479,38V58.13a7.48,7.48,0,0,0-3.58-1.1q-5.13,0-5.13,7.85v23.8H451.47V61.25q0-10.86,5.94-17.33t15.85-6.47A38.48,38.48,0,0,1,479,38Z" transform="translate(-5.93 -17.67)"/><path d="M491,110.07V93.71a17.73,17.73,0,0,0,6.7,1.61q9.15,0,11.87-10.32a18.86,18.86,0,0,1-9.66,2.92,14.57,14.57,0,0,1-11.52-5.21q-4.53-5.2-4.53-13.26V37.9H502.7v27q0,4.48,3.72,4.48T510,64.42V37.9h18.82V82.69q0,12.53-7.05,20.23a26.58,26.58,0,0,1-20.33,9.16A28.65,28.65,0,0,1,491,110.07Z" transform="translate(-5.93 -17.67)"/></g></svg>